<svg xmlns="http://www.w3.org/2000/svg" xmlns:xlink="http://www.w3.org/1999/xlink" width="300" zoomAndPan="magnify" viewBox="0 0 224.87999 225" height="300" preserveAspectRatio="xMidYMid meet" version="1.0"><defs><g/><clipPath id="110c8cbe0a"><path d="M 20.546875 17.523438 L 217.929688 17.523438 L 217.929688 214.90625 L 20.546875 214.90625 Z M 20.546875 17.523438 " clip-rule="nonzero"/></clipPath><clipPath id="3ff3e9b9db"><path d="M 119.238281 17.523438 L 151.832031 37.527344 L 189.023438 46.429688 L 197.925781 83.621094 L 217.929688 116.214844 L 197.925781 148.808594 L 189.023438 186 L 151.832031 194.902344 L 119.238281 214.90625 L 86.644531 194.902344 L 49.453125 186 L 40.550781 148.808594 L 20.546875 116.214844 L 40.550781 83.621094 L 49.453125 46.429688 L 86.644531 37.527344 Z M 119.238281 17.523438 " clip-rule="nonzero"/></clipPath><clipPath id="2602886dcb"><path d="M 70 66 L 145 66 L 145 155 L 70 155 Z M 70 66 " clip-rule="nonzero"/></clipPath><clipPath id="8e17d8cf2c"><path d="M 144.742188 154.714844 L 70.164062 150.644531 L 74.867188 64.414062 L 149.449219 68.484375 Z M 144.742188 154.714844 " clip-rule="nonzero"/></clipPath><clipPath id="9be2f617f4"><path d="M 112.152344 66.585938 L 70.164062 150.644531 L 144.742188 154.714844 Z M 112.152344 66.585938 " clip-rule="nonzero"/></clipPath><clipPath id="3bdafdc0e4"><path d="M 104.925781 73.644531 L 193.917969 73.644531 L 193.917969 154.71875 L 104.925781 154.71875 Z M 104.925781 73.644531 " clip-rule="nonzero"/></clipPath><clipPath id="9622960dc8"><path d="M 149.441406 73.644531 L 104.964844 154.71875 L 193.917969 154.71875 Z M 149.441406 73.644531 " clip-rule="nonzero"/></clipPath><clipPath id="9646e5648d"><path d="M 41 87 L 116 87 L 116 155 L 41 155 Z M 41 87 " clip-rule="nonzero"/></clipPath><clipPath id="fe3ededf69"><path d="M 115.785156 154.71875 L 41.007812 150.75 L 44.449219 85.859375 L 119.226562 89.828125 Z M 115.785156 154.71875 " clip-rule="nonzero"/></clipPath><clipPath id="496799d5a9"><path d="M 81.933594 87.847656 L 41.199219 150.761719 L 115.785156 154.71875 Z M 81.933594 87.847656 " clip-rule="nonzero"/></clipPath></defs><g clip-path="url(#110c8cbe0a)"><g clip-path="url(#3ff3e9b9db)"><path fill="#5271ff" d="M 20.546875 17.523438 L 217.929688 17.523438 L 217.929688 214.90625 L 20.546875 214.90625 Z M 20.546875 17.523438 " fill-opacity="1" fill-rule="nonzero"/></g></g><g clip-path="url(#2602886dcb)"><g clip-path="url(#8e17d8cf2c)"><g clip-path="url(#9be2f617f4)"><path fill="#ffffff" d="M 144.742188 154.714844 L 70.164062 150.644531 L 74.867188 64.414062 L 149.449219 68.484375 Z M 144.742188 154.714844 " fill-opacity="1" fill-rule="nonzero"/></g></g></g><g clip-path="url(#3bdafdc0e4)"><g clip-path="url(#9622960dc8)"><path fill="#ffffff" d="M 193.917969 154.71875 L 104.925781 154.71875 L 104.925781 73.644531 L 193.917969 73.644531 Z M 193.917969 154.71875 " fill-opacity="1" fill-rule="nonzero"/></g></g><g clip-path="url(#9646e5648d)"><g clip-path="url(#fe3ededf69)"><g clip-path="url(#496799d5a9)"><path fill="#ffffff" d="M 115.785156 154.71875 L 41.261719 150.765625 L 44.703125 85.871094 L 119.226562 89.828125 Z M 115.785156 154.71875 " fill-opacity="1" fill-rule="nonzero"/></g></g></g><g fill="#ff66c4" fill-opacity="1"><g transform="translate(62.272056, 146.719198)"><g><path d="M 104.625 28.15625 C 104.007812 27.84375 103.34375 27.6875 102.625 27.6875 C 100.570312 27.488281 99.03125 26.875 98 25.84375 C 96.976562 24.820312 95.90625 23.59375 94.78125 22.15625 C 94.78125 22.050781 94.753906 22 94.703125 22 C 94.648438 22 94.625 22 94.625 22 C 94.414062 21.59375 94.285156 21.234375 94.234375 20.921875 C 94.179688 20.617188 94.15625 20.3125 94.15625 20 C 94.15625 19.894531 93.972656 19.765625 93.609375 19.609375 C 93.253906 19.460938 93.03125 19.179688 92.9375 18.765625 C 92.9375 18.253906 92.9375 18 92.9375 18 C 93.445312 17.28125 93.519531 16.765625 93.15625 16.453125 C 92.800781 16.148438 92.46875 15.796875 92.15625 15.390625 C 92.15625 15.179688 92.207031 14.972656 92.3125 14.765625 C 92.414062 14.566406 92.46875 14.414062 92.46875 14.3125 C 92.363281 12.363281 92.257812 10.363281 92.15625 8.3125 C 92.0625 6.257812 92.21875 4.207031 92.625 2.15625 C 93.03125 0.40625 93.335938 -1.234375 93.546875 -2.765625 C 93.753906 -4.304688 94.0625 -5.898438 94.46875 -7.546875 L 97.703125 -20.921875 L 100.3125 -33.234375 C 100.414062 -33.742188 100.492188 -34.226562 100.546875 -34.6875 C 100.597656 -35.15625 100.625 -35.644531 100.625 -36.15625 L 101.703125 -45.546875 C 101.910156 -47.078125 101.910156 -48.613281 101.703125 -50.15625 C 101.703125 -50.363281 101.265625 -50.75 100.390625 -51.3125 C 99.515625 -51.875 98.769531 -52.050781 98.15625 -51.84375 C 97.957031 -51.75 97.726562 -51.703125 97.46875 -51.703125 C 97.207031 -51.703125 96.976562 -51.648438 96.78125 -51.546875 C 95.34375 -50.828125 93.90625 -50.054688 92.46875 -49.234375 C 91.03125 -48.410156 89.695312 -47.4375 88.46875 -46.3125 C 87.644531 -45.488281 86.742188 -44.640625 85.765625 -43.765625 C 84.796875 -42.898438 83.898438 -42.003906 83.078125 -41.078125 C 82.460938 -40.671875 81.820312 -40.179688 81.15625 -39.609375 C 80.488281 -39.046875 80.054688 -38.457031 79.859375 -37.84375 C 79.441406 -36.820312 78.769531 -35.820312 77.84375 -34.84375 C 76.925781 -33.875 76.109375 -32.976562 75.390625 -32.15625 C 72.929688 -29.382812 70.726562 -26.429688 68.78125 -23.296875 C 66.832031 -20.171875 64.984375 -16.921875 63.234375 -13.546875 L 62 -10.46875 C 62 -10.257812 61.867188 -9.71875 61.609375 -8.84375 C 61.359375 -7.976562 61.078125 -7.132812 60.765625 -6.3125 C 60.460938 -5.488281 60.257812 -5.023438 60.15625 -4.921875 C 59.75 -3.285156 59.289062 -1.847656 58.78125 -0.609375 C 58.570312 0.109375 58.335938 0.773438 58.078125 1.390625 C 57.828125 2.003906 57.597656 3.03125 57.390625 4.46875 C 57.285156 5.488281 57.128906 6.535156 56.921875 7.609375 C 56.722656 8.691406 56.414062 9.796875 56 10.921875 C 55.28125 11.429688 54.867188 11.484375 54.765625 11.078125 C 54.671875 10.671875 54.210938 10.363281 53.390625 10.15625 C 52.984375 9.945312 52.1875 9.789062 51 9.6875 C 49.820312 9.59375 49.234375 9.335938 49.234375 8.921875 C 49.441406 7.179688 49.75 5.460938 50.15625 3.765625 C 50.570312 2.078125 50.984375 0.566406 51.390625 -0.765625 C 52.210938 -3.847656 52.90625 -6.488281 53.46875 -8.6875 C 54.03125 -10.894531 54.722656 -13.4375 55.546875 -16.3125 L 60 -32.46875 C 61.851562 -39.132812 63.160156 -44.207031 63.921875 -47.6875 C 64.691406 -51.175781 65.023438 -53.894531 64.921875 -55.84375 C 64.828125 -57.894531 64.597656 -59.304688 64.234375 -60.078125 C 63.878906 -60.847656 63.132812 -61.234375 62 -61.234375 C 60.976562 -61.023438 60.335938 -60.738281 60.078125 -60.375 C 59.828125 -60.019531 59.441406 -59.691406 58.921875 -59.390625 C 57.492188 -58.359375 56.238281 -57.203125 55.15625 -55.921875 C 54.082031 -54.640625 53.132812 -53.28125 52.3125 -51.84375 C 51.695312 -51.03125 51.1875 -50.316406 50.78125 -49.703125 C 50.363281 -49.078125 49.898438 -48.484375 49.390625 -47.921875 C 48.878906 -47.359375 48.625 -46.617188 48.625 -45.703125 C 48.625 -45.597656 48.597656 -45.546875 48.546875 -45.546875 C 48.492188 -45.546875 48.46875 -45.492188 48.46875 -45.390625 C 47.539062 -44.359375 46.742188 -43.253906 46.078125 -42.078125 C 45.410156 -40.898438 44.820312 -39.75 44.3125 -38.625 C 44.207031 -38.207031 44 -37.816406 43.6875 -37.453125 C 43.382812 -37.097656 43.128906 -36.820312 42.921875 -36.625 C 42.816406 -36.207031 42.738281 -35.742188 42.6875 -35.234375 C 42.644531 -34.722656 42.519531 -34.257812 42.3125 -33.84375 L 33.546875 -11.546875 L 28.625 0.609375 C 27.800781 2.765625 27.234375 4.867188 26.921875 6.921875 C 26.617188 8.972656 26.207031 11.128906 25.6875 13.390625 C 25.59375 14.109375 25.390625 14.59375 25.078125 14.84375 C 24.773438 15.101562 24.210938 15.128906 23.390625 14.921875 C 22.972656 14.816406 22.582031 14.632812 22.21875 14.375 C 21.863281 14.125 21.535156 13.945312 21.234375 13.84375 C 21.023438 13.738281 20.789062 13.609375 20.53125 13.453125 C 20.28125 13.304688 20 13.179688 19.6875 13.078125 C 18.257812 12.765625 17.644531 12.148438 17.84375 11.234375 C 18.050781 10.410156 18.304688 9.585938 18.609375 8.765625 C 18.921875 7.953125 19.234375 6.828125 19.546875 5.390625 C 20.054688 3.023438 20.539062 0.816406 21 -1.234375 C 21.457031 -3.285156 21.992188 -5.488281 22.609375 -7.84375 C 23.234375 -10.207031 23.976562 -13.082031 24.84375 -16.46875 C 25.71875 -19.851562 26.769531 -24.109375 28 -29.234375 C 28.207031 -30.253906 28.410156 -31.25 28.609375 -32.21875 C 28.816406 -33.195312 28.972656 -34.097656 29.078125 -34.921875 C 29.484375 -36.671875 29.789062 -38.390625 30 -40.078125 C 30.207031 -41.773438 30.460938 -43.492188 30.765625 -45.234375 C 31.078125 -46.878906 31.304688 -48.546875 31.453125 -50.234375 C 31.609375 -51.929688 31.738281 -53.597656 31.84375 -55.234375 C 32.050781 -56.878906 32.15625 -58.46875 32.15625 -60 C 32.15625 -61.539062 32.207031 -63.082031 32.3125 -64.625 C 32.414062 -65.75 32.363281 -66.769531 32.15625 -67.6875 C 31.945312 -68.613281 31.742188 -69.59375 31.546875 -70.625 C 31.441406 -71.03125 31.257812 -71.4375 31 -71.84375 C 30.75 -72.257812 30.519531 -72.671875 30.3125 -73.078125 C 30 -73.796875 29.484375 -74.179688 28.765625 -74.234375 C 28.046875 -74.285156 27.378906 -74.109375 26.765625 -73.703125 C 25.429688 -73.085938 24.304688 -72.210938 23.390625 -71.078125 C 21.335938 -68.722656 19.644531 -66.363281 18.3125 -64 C 17.488281 -62.976562 16.769531 -61.851562 16.15625 -60.625 C 15.539062 -59.394531 14.71875 -58.265625 13.6875 -57.234375 C 13.28125 -56.828125 12.867188 -56.363281 12.453125 -55.84375 C 12.046875 -55.332031 11.640625 -55.128906 11.234375 -55.234375 C 10.722656 -55.335938 10.003906 -55.898438 9.078125 -56.921875 C 8.148438 -57.953125 7.6875 -58.671875 7.6875 -59.078125 C 8.207031 -60.304688 8.875 -61.429688 9.6875 -62.453125 C 10.507812 -63.484375 11.28125 -64.515625 12 -65.546875 C 12.925781 -66.878906 13.796875 -68.054688 14.609375 -69.078125 C 15.429688 -70.109375 16.359375 -71.1875 17.390625 -72.3125 C 18.410156 -73.4375 19.457031 -74.4375 20.53125 -75.3125 C 21.613281 -76.1875 22.820312 -76.984375 24.15625 -77.703125 C 25.082031 -78.109375 26.082031 -78.460938 27.15625 -78.765625 C 28.226562 -79.078125 29.28125 -79.132812 30.3125 -78.9375 C 30.925781 -78.9375 31.847656 -78.578125 33.078125 -77.859375 C 34.515625 -77.140625 35.488281 -75.90625 36 -74.15625 C 36.507812 -72.414062 36.972656 -70.570312 37.390625 -68.625 L 37.84375 -63.390625 C 37.945312 -62.460938 38.023438 -61.507812 38.078125 -60.53125 C 38.128906 -59.5625 38.003906 -58.664062 37.703125 -57.84375 C 37.285156 -57.03125 37.179688 -56.1875 37.390625 -55.3125 C 37.597656 -54.4375 37.648438 -53.59375 37.546875 -52.78125 C 37.441406 -52.363281 37.390625 -51.898438 37.390625 -51.390625 C 37.390625 -50.878906 37.335938 -50.363281 37.234375 -49.84375 C 36.515625 -47.59375 36.050781 -45.234375 35.84375 -42.765625 C 35.644531 -40.304688 35.1875 -37.898438 34.46875 -35.546875 C 34.15625 -34.515625 33.945312 -33.457031 33.84375 -32.375 C 33.738281 -31.300781 33.640625 -30.203125 33.546875 -29.078125 C 33.847656 -29.585938 34.125 -30.175781 34.375 -30.84375 C 34.632812 -31.507812 34.867188 -32.148438 35.078125 -32.765625 C 36.203125 -35.023438 37.273438 -37.304688 38.296875 -39.609375 C 39.328125 -41.921875 40.410156 -44.207031 41.546875 -46.46875 C 42.671875 -48.519531 43.820312 -50.546875 45 -52.546875 C 46.175781 -54.546875 47.484375 -56.363281 48.921875 -58 C 50.359375 -59.75 51.820312 -61.289062 53.3125 -62.625 C 54.800781 -63.957031 56.519531 -64.984375 58.46875 -65.703125 C 59.695312 -66.210938 60.925781 -66.363281 62.15625 -66.15625 C 62.976562 -66.15625 63.820312 -66 64.6875 -65.6875 C 65.5625 -65.382812 66.359375 -65.128906 67.078125 -64.921875 C 68.210938 -64.617188 69.113281 -64.03125 69.78125 -63.15625 C 70.445312 -62.28125 70.929688 -61.28125 71.234375 -60.15625 C 71.742188 -58.3125 71.898438 -56.257812 71.703125 -54 C 71.703125 -52.050781 71.570312 -50.332031 71.3125 -48.84375 C 71.050781 -47.363281 70.515625 -45.441406 69.703125 -43.078125 C 69.703125 -42.566406 69.441406 -41.59375 68.921875 -40.15625 C 68.410156 -38.71875 67.875 -37.125 67.3125 -35.375 C 66.75 -33.632812 66.285156 -32.046875 65.921875 -30.609375 C 65.566406 -29.179688 65.492188 -28.207031 65.703125 -27.6875 C 66.210938 -28.40625 66.898438 -29.351562 67.765625 -30.53125 C 68.640625 -31.71875 69.285156 -32.671875 69.703125 -33.390625 C 72.265625 -38.003906 75.441406 -42.257812 79.234375 -46.15625 C 81.179688 -48.207031 83.285156 -50.023438 85.546875 -51.609375 C 87.804688 -53.203125 90.21875 -54.566406 92.78125 -55.703125 C 93.289062 -56.109375 93.90625 -56.363281 94.625 -56.46875 C 95.34375 -56.570312 96.0625 -56.675781 96.78125 -56.78125 C 98.519531 -56.78125 100.054688 -56.570312 101.390625 -56.15625 C 102.722656 -55.75 103.90625 -55.335938 104.9375 -54.921875 C 105.238281 -54.722656 105.492188 -54.46875 105.703125 -54.15625 C 106.523438 -52.820312 107.113281 -51.460938 107.46875 -50.078125 C 107.832031 -48.691406 107.910156 -47.234375 107.703125 -45.703125 C 107.597656 -44.054688 107.519531 -42.410156 107.46875 -40.765625 C 107.414062 -39.128906 107.238281 -37.539062 106.9375 -36 C 106.832031 -35.175781 106.648438 -34.378906 106.390625 -33.609375 C 106.140625 -32.847656 106.015625 -32.109375 106.015625 -31.390625 C 105.910156 -30.460938 105.753906 -29.535156 105.546875 -28.609375 C 105.335938 -27.691406 105.132812 -26.769531 104.9375 -25.84375 C 104.519531 -24.3125 103.898438 -23.03125 103.078125 -22 L 103.390625 -20.609375 C 103.390625 -20.304688 103.285156 -19.742188 103.078125 -18.921875 C 102.878906 -18.097656 102.78125 -17.585938 102.78125 -17.390625 C 102.675781 -16.972656 102.570312 -16.609375 102.46875 -16.296875 C 102.363281 -15.992188 102.210938 -15.691406 102.015625 -15.390625 C 101.910156 -14.972656 101.832031 -14.710938 101.78125 -14.609375 C 101.726562 -14.515625 101.703125 -14.46875 101.703125 -14.46875 L 101.234375 -10.765625 C 101.035156 -9.742188 100.753906 -8.691406 100.390625 -7.609375 C 100.035156 -6.535156 99.703125 -5.4375 99.390625 -4.3125 C 100.109375 -3.59375 100.109375 -2.820312 99.390625 -2 C 98.984375 -1.382812 98.78125 -0.796875 98.78125 -0.234375 C 98.78125 0.328125 98.675781 0.914062 98.46875 1.53125 C 98.46875 1.945312 98.414062 2.410156 98.3125 2.921875 C 98.207031 3.429688 98.054688 3.945312 97.859375 4.46875 C 97.648438 4.976562 97.644531 5.4375 97.84375 5.84375 C 98.050781 6.257812 97.847656 6.617188 97.234375 6.921875 C 97.847656 7.335938 97.796875 7.546875 97.078125 7.546875 C 97.898438 7.953125 98.160156 8.460938 97.859375 9.078125 C 97.753906 9.179688 97.625 9.332031 97.46875 9.53125 C 97.3125 9.738281 97.132812 9.945312 96.9375 10.15625 C 97.03125 10.257812 97.15625 10.382812 97.3125 10.53125 C 97.46875 10.6875 97.597656 10.867188 97.703125 11.078125 C 97.910156 11.285156 97.988281 11.539062 97.9375 11.84375 C 97.882812 12.15625 97.859375 12.460938 97.859375 12.765625 C 97.859375 13.179688 97.882812 13.617188 97.9375 14.078125 C 97.988281 14.535156 98.164062 15.023438 98.46875 15.546875 C 98.675781 15.742188 98.726562 16.019531 98.625 16.375 C 98.519531 16.738281 98.519531 17.128906 98.625 17.546875 C 98.726562 17.847656 98.804688 18.148438 98.859375 18.453125 C 98.910156 18.765625 99.035156 19.023438 99.234375 19.234375 C 99.847656 19.640625 100.285156 20.203125 100.546875 20.921875 C 100.804688 21.640625 101.140625 22.253906 101.546875 22.765625 C 102.367188 23.691406 103.316406 24.4375 104.390625 25 C 105.472656 25.5625 106.78125 25.789062 108.3125 25.6875 C 109.75 25.59375 111.132812 25.390625 112.46875 25.078125 C 113.800781 24.773438 115.289062 24.265625 116.9375 23.546875 C 118.375 22.929688 119.398438 22.363281 120.015625 21.84375 C 120.628906 21.332031 121.347656 20.875 122.171875 20.46875 C 122.367188 20.875 122.160156 21.175781 121.546875 21.375 C 120.929688 21.582031 120.675781 22.046875 120.78125 22.765625 C 120.78125 22.867188 120.597656 23.046875 120.234375 23.296875 C 119.878906 23.554688 119.597656 23.789062 119.390625 24 C 118.878906 24.414062 118.390625 24.773438 117.921875 25.078125 C 117.460938 25.390625 117.082031 25.851562 116.78125 26.46875 C 116.675781 26.664062 116.421875 26.867188 116.015625 27.078125 C 114.160156 27.796875 112.3125 28.332031 110.46875 28.6875 C 108.625 29.050781 106.675781 28.875 104.625 28.15625 Z M 104.625 28.15625 "/></g></g></g></svg>